# xmcd CD database file
#
# Track frame offsets:
#	150
#	22264
#	39695
#	64846
#	85307
#	109012
#	143894
#	169717
#	192544
#	215831
#	237893
#	250800
#	278289
#
# Disc length: 3997 seconds
#
# Revision: 0
# Processed by: cddbd v1.5.2PL0 Copyright (c) Steve Scherf et al.
# Submitted via: CDex 1.70beta2
#
DISCID=be0f9b0d
DTITLE=Willie Nelson and Wynton Marsalis feat. Norah Jones - Here We Go Again - TOCP-70985
DYEAR=2011
DGENRE=Jazz
TTITLE0=Hallelujah I Love Her So
TTITLE1=Come Rain or Come Shine (feat. Norah Jones)
TTITLE2=Unchain My Heart
TTITLE3=Cryin' Time (feat. Norah Jones)
TTITLE4=Losing Hand
TTITLE5=Hit the Road Jack (feat. Norah Jones)
TTITLE6=I'm Moving On
TTITLE7=Busted
TTITLE8=Here We Go Again (feat. Norah Jones)
TTITLE9=Makin' Whoopee (feat. Norah Jones)
TTITLE10=I Love You So Much (It Hurts)
TTITLE11=What'd I Say (feat. Norah Jones)
TTITLE12=You Don't Know Me (feat. Norah Jones)
EXTD=YEAR: 2011
EXTT0=
EXTT1=
EXTT2=
EXTT3=
EXTT4=
EXTT5=
EXTT6=
EXTT7=
EXTT8=
EXTT9=
EXTT10=
EXTT11=
EXTT12=
PLAYORDER=
